<svg width="25" height="25" viewBox="0 0 25 25" fill="none" xmlns="http://www.w3.org/2000/svg">
<mask id="mask0_1_658" style="mask-type:alpha" maskUnits="userSpaceOnUse" x="0" y="0" width="25" height="25">
<rect x="0.198242" y="0.646057" width="24" height="24" fill="#D9D9D9"/>
</mask>
<g mask="url(#mask0_1_658)">
<path d="M7.19824 21.6461C6.64824 21.6461 6.17741 21.4502 5.78574 21.0586C5.39408 20.6669 5.19824 20.1961 5.19824 19.6461V6.64606H4.19824V4.64606H9.19824V3.64606H15.1982V4.64606H20.1982V6.64606H19.1982V19.6461C19.1982 20.1961 19.0024 20.6669 18.6107 21.0586C18.2191 21.4502 17.7482 21.6461 17.1982 21.6461H7.19824ZM17.1982 6.64606H7.19824V19.6461H17.1982V6.64606ZM9.19824 17.6461H11.1982V8.64606H9.19824V17.6461ZM13.1982 17.6461H15.1982V8.64606H13.1982V17.6461Z" fill="#B0B0B0"/>
</g>
</svg>
