<svg width="100" height="100" viewBox="0 0 100 100" fill="none" xmlns="http://www.w3.org/2000/svg">
<mask id="mask0_28_686" style="mask-type:alpha" maskUnits="userSpaceOnUse" x="0" y="0" width="100" height="101">
<rect x="0.258789" y="0.259766" width="99.7412" height="99.7412" fill="#D9D9D9"/>
</mask>
<g mask="url(#mask0_28_686)">
<path d="M16.8826 83.3763C14.5968 83.3763 12.6401 82.5624 11.0124 80.9347C9.38466 79.307 8.5708 77.3503 8.5708 75.0645V25.1939C8.5708 22.9082 9.38466 20.9514 11.0124 19.3237C12.6401 17.696 14.5968 16.8821 16.8826 16.8821H83.3767C85.6624 16.8821 87.6192 17.696 89.2469 19.3237C90.8746 20.9514 91.6885 22.9082 91.6885 25.1939V75.0645C91.6885 77.3503 90.8746 79.307 89.2469 80.9347C87.6192 82.5624 85.6624 83.3763 83.3767 83.3763H16.8826ZM16.8826 33.5057H83.3767V25.1939H16.8826V33.5057ZM45.766 69.0385L69.2467 45.5577L63.2207 39.5317L45.766 56.9864L37.0386 48.2591L31.0126 54.2851L45.766 69.0385Z" fill="#65B777"/>
</g>
</svg>
